<svg width="49" height="49" viewBox="0 0 49 49" fill="none" xmlns="http://www.w3.org/2000/svg">
<path d="M41.9425 27.9536L41.9479 27.9518L36.0369 15.0546L37.4704 14.3412L36.934 13.2671L35.5365 13.9632L35.3475 13.551C35.2093 13.2497 34.8532 13.1175 34.552 13.2556C34.4213 13.3155 34.3166 13.4203 34.2566 13.551L34.088 13.9194C33.071 13.447 31.9632 13.2019 30.8418 13.2011H25.8015V12.0011H27.0016V10.801H25.9702L26.4016 9.0747C26.7328 7.74914 25.9268 6.40604 24.6013 6.07475C23.2757 5.74353 21.9326 6.54953 21.6013 7.87508C21.5029 8.26885 21.5029 8.68085 21.6013 9.07462L22.0327 10.8009H21.0013V12.001H22.2013V13.2011H17.164C16.0415 13.202 14.9327 13.4477 13.9149 13.9211L13.7463 13.5527C13.6082 13.2515 13.252 13.1192 12.9508 13.2573C12.8201 13.3172 12.7153 13.422 12.6554 13.5527L12.4664 13.9649L11.0689 13.2659L10.5325 14.3411L11.9659 15.0576L6.05501 27.9518C6.01856 28.0302 5.99995 28.1156 6.0004 28.202C6.00303 30.5206 7.88204 32.3996 10.2006 32.4022H16.201C18.5196 32.3996 20.3986 30.5206 20.4012 28.202C20.3997 28.1158 20.3793 28.031 20.3412 27.9536L14.4141 15.0078C15.2757 14.6079 16.2142 14.4009 17.164 14.4012H22.2013V36.3541L20.1528 38.4026H18.0011C16.345 38.4045 15.0029 39.7467 15.0009 41.4028C15.0009 41.7341 15.2696 42.0028 15.601 42.0028H32.4019C32.7333 42.0028 33.002 41.7341 33.002 41.4028C33 39.7467 31.6579 38.4045 30.0018 38.4026H27.8501L25.8015 36.3541V14.4012H30.8418C31.7917 14.4009 32.7302 14.6079 33.5918 15.0078L27.6563 27.9518C27.6198 28.0302 27.6012 28.1156 27.6017 28.202C27.6043 30.5206 29.4833 32.3996 31.8019 32.4022H37.8022C40.1209 32.3996 41.9999 30.5206 42.0025 28.202C42.0011 28.1158 41.9806 28.031 41.9425 27.9536ZM16.201 31.2022H10.2006C8.77541 31.2006 7.54737 30.1981 7.26048 28.802H19.1412C18.8543 30.1981 17.6262 31.2006 16.201 31.2022ZM18.8663 27.602H7.53529L13.0472 15.5767C13.1479 15.6037 13.2538 15.6037 13.3544 15.5767L18.8663 27.602ZM22.9976 7.69042C23.4649 7.13598 24.2931 7.06541 24.8476 7.53268C24.9045 7.58069 24.9573 7.63349 25.0053 7.69042C25.248 7.99913 25.3337 8.40296 25.2375 8.78368L24.7329 10.801H23.27L22.7654 8.78368C22.6691 8.40296 22.7549 7.99913 22.9976 7.69042ZM23.4014 13.2011V12.0011H24.6015V13.2011H23.4014ZM24.6015 14.4012V36.0024H23.4014V14.4012H24.6015V14.4012ZM30.0018 39.6027C30.7644 39.6036 31.444 40.084 31.6993 40.8027H16.3036C16.5588 40.084 17.2385 39.6036 18.0011 39.6027H30.0018ZM26.1532 38.4026H21.8497L23.0498 37.2025H24.9531L26.1532 38.4026ZM34.6473 15.5785C34.7463 15.6133 34.855 15.6088 34.9509 15.5659L40.4676 27.602H29.1365L34.6473 15.5785ZM37.8022 31.2022H31.8019C30.3767 31.2006 29.1486 30.1981 28.8617 28.802H40.7424C40.4556 30.1981 39.2275 31.2006 37.8022 31.2022Z" fill="#263B97" stroke="#263B97" stroke-width="0.3"/>
</svg>
