<svg width="37" height="37" viewBox="0 0 37 37" fill="none" xmlns="http://www.w3.org/2000/svg">
<path d="M34.468 34.4669C33.2794 35.6555 31.3434 35.6568 30.1538 34.4669L23.2004 27.5138L27.5146 23.2L34.468 30.1531C35.6569 31.3427 35.6569 33.278 34.468 34.4669ZM22.501 22.5003C23.2447 21.757 23.8676 20.9403 24.3959 20.0814L26.4276 22.1131L22.1134 26.4269L20.0841 24.3976C20.9487 23.8631 21.7643 23.2374 22.501 22.5003ZM4.94789 21.4134C2.74925 19.2144 1.53768 16.2902 1.53768 13.1806C1.53768 10.0707 2.74925 7.1465 4.94789 4.94752C7.14757 2.74888 10.0714 1.53765 13.1813 1.53765C16.2909 1.53765 19.2147 2.74888 21.4141 4.94752C25.0429 8.57734 25.7618 14.0235 23.5876 18.383C23.538 18.4557 23.5007 18.5308 23.479 18.6132C22.9483 19.6208 22.2604 20.5667 21.4141 21.4134C20.5799 22.2475 19.6404 22.9378 18.6268 23.4755C18.5318 23.4989 18.4449 23.5408 18.3628 23.6005C16.7714 24.3938 15.0109 24.8232 13.1813 24.8232C10.0714 24.8232 7.14757 23.6123 4.94789 21.4134ZM35.5549 29.0662L25.1508 18.662C27.371 13.7986 26.4974 7.85774 22.501 3.8606C20.0119 1.37111 16.7015 -3.05176e-05 13.1813 -3.05176e-05C9.66078 -3.05176e-05 6.3501 1.37111 3.86097 3.8606C1.37149 6.34973 0 9.66007 0 13.1806C0 16.7008 1.37149 20.0112 3.86097 22.5003C6.3501 24.9901 9.66008 26.3609 13.1813 26.3609C15.109 26.3609 16.9672 25.9363 18.6683 25.156L29.0665 35.5538C29.9607 36.4484 31.1356 36.896 32.3102 36.896C33.4858 36.896 34.6607 36.4484 35.5549 35.5538C37.3429 33.7655 37.3429 30.8552 35.5549 29.0662Z" fill="#263B97"/>
<path d="M7.41535 14.9439C6.99043 14.9439 6.64685 15.2882 6.64685 15.7128V19.3304C6.64685 19.755 6.99043 20.0989 7.41535 20.0989C7.84027 20.0989 8.18419 19.755 8.18419 19.3304V15.7128C8.18419 15.2882 7.84027 14.9439 7.41535 14.9439Z" fill="#263B97"/>
<path d="M11.2589 12.0501C10.834 12.0501 10.4904 12.3944 10.4904 12.819V19.3304C10.4904 19.755 10.834 20.0989 11.2589 20.0989C11.6838 20.0989 12.0277 19.755 12.0277 19.3304V12.819C12.0277 12.3944 11.6838 12.0501 11.2589 12.0501Z" fill="#263B97"/>
<path d="M15.1023 9.15631C14.6774 9.15631 14.3339 9.50057 14.3339 9.9248V19.3304C14.3339 19.755 14.6774 20.0989 15.1023 20.0989C15.5273 20.0989 15.8712 19.755 15.8712 19.3304V9.9248C15.8712 9.50057 15.5273 9.15631 15.1023 9.15631Z" fill="#263B97"/>
<path d="M18.9459 20.0989C19.3708 20.0989 19.7147 19.755 19.7147 19.3304V7.03099C19.7147 6.60642 19.3708 6.26251 18.9459 6.26251C18.521 6.26251 18.1771 6.60642 18.1771 7.03099V19.3304C18.1771 19.755 18.521 20.0989 18.9459 20.0989Z" fill="#263B97"/>
</svg>
